<svg xmlns="http://www.w3.org/2000/svg" xmlns:xlink="http://www.w3.org/1999/xlink" width="69" height="59" viewBox="0 0 69 59">
  <defs>
    <clipPath id="clip-BCM">
      <rect width="69" height="59"/>
    </clipPath>
  </defs>
  <g id="BCM" clip-path="url(#clip-BCM)">
    <g id="Group_750" data-name="Group 750" transform="translate(-29.953 -205.776)">
      <path id="Path_81" data-name="Path 81" d="M37.312,29a8.312,8.312,0,1,0,8.312,8.312A8.321,8.321,0,0,0,37.312,29Zm0,14.249a6,6,0,0,1-3.562-1.187V40.875h2.375V38.5H33.75V36.125H31.494a5.938,5.938,0,0,1,5.819-4.75,6.886,6.886,0,0,1,1.425.166V33.75H36.362v2.375h6.768a6.493,6.493,0,0,1,.119,1.187A5.939,5.939,0,0,1,37.312,43.249Z" transform="translate(22.603 192.426)" fill="#fff"/>
      <path id="Path_82" data-name="Path 82" d="M15.962,28.549a12.587,12.587,0,1,1,7.98-22.324h-1.8V8.6h5.937V2.662H25.7V4.61A14.778,14.778,0,0,0,15.962,1,14.962,14.962,0,1,0,30.924,15.962H28.549A12.609,12.609,0,0,1,15.962,28.549Z" transform="translate(43.953 213.776)" fill="#fff"/>
    </g>
  </g>
</svg>
