<svg xmlns="http://www.w3.org/2000/svg" xmlns:xlink="http://www.w3.org/1999/xlink" width="66" height="60" viewBox="0 0 66 60">
  <defs>
    <clipPath id="clip-Compliance_Management">
      <rect width="66" height="60"/>
    </clipPath>
  </defs>
  <g id="Compliance_Management" data-name="Compliance Management" clip-path="url(#clip-Compliance_Management)">
    <path id="Path_579" data-name="Path 579" d="M1.977,24.478,1.09,15.75a1.316,1.316,0,0,1,.426-1.135,1.049,1.049,0,0,1,1.526.106,5.119,5.119,0,0,1,.568,1.916,36.12,36.12,0,0,1,.426,3.938v.248a3.981,3.981,0,0,0,.355,1.419A43.618,43.618,0,0,0,7.9,27.991l.142.177a.376.376,0,0,0,.461.106.359.359,0,0,0,.142-.461L5.49,22.74A1.326,1.326,0,0,1,5.951,21a1.279,1.279,0,0,1,1.739.39l3.229,4.151a4.025,4.025,0,0,0,.887.852,7.915,7.915,0,0,1,3.548,5.286,4.718,4.718,0,0,1,.035.6h0a5.562,5.562,0,0,1-.071,1.029L15.14,36.79a.47.47,0,0,1-.461.461l-5.464-.035a.47.47,0,0,1-.461-.461L8.647,33.88l-5.18-6.244a5.115,5.115,0,0,1-1.455-2.8Zm2.98-4.541v.284a1.274,1.274,0,0,1,.355-.248,1.244,1.244,0,0,1,.5-.213.035.035,0,0,1,.035-.035,28.652,28.652,0,0,0-.674-3.477,1.206,1.206,0,0,0-.816-.922,8.648,8.648,0,0,1,.213.922A33.423,33.423,0,0,1,4.958,19.937Zm1.774-.319a3.018,3.018,0,0,1,.781.142c-.071-.568-.461-1.739-.6-2.306a1.255,1.255,0,0,0-.816-.922c.142.639.5,1.845.6,2.484l.071.426A.386.386,0,0,0,6.732,19.618Zm27.106-4.932A5.119,5.119,0,0,0,33.27,16.6a36.12,36.12,0,0,0-.426,3.938v.248a3.981,3.981,0,0,1-.355,1.419,43.619,43.619,0,0,1-3.512,5.748l-.142.177a.376.376,0,0,1-.461.106.359.359,0,0,1-.142-.461L31.39,22.74A1.326,1.326,0,0,0,30.929,21a1.279,1.279,0,0,0-1.739.39l-3.229,4.151a4.025,4.025,0,0,1-.887.852,7.915,7.915,0,0,0-3.548,5.286,4.718,4.718,0,0,0-.035.6h0a5.562,5.562,0,0,0,.071,1.029l.177,3.477a.47.47,0,0,0,.461.461l5.464-.035a.47.47,0,0,0,.461-.461l.106-2.874,5.18-6.244a5.115,5.115,0,0,0,1.455-2.8l.035-.319.887-8.728a1.316,1.316,0,0,0-.426-1.135A1.015,1.015,0,0,0,33.838,14.686Zm-2.8,5.038h0c.177.106.355.177.5.248a3.069,3.069,0,0,1,.355.248v-.284a34.237,34.237,0,0,1,.426-3.725,4.889,4.889,0,0,1,.213-.922,1.149,1.149,0,0,0-.816.922C31.5,17.1,31.177,18.8,31.035,19.724Zm-1.668.035a1.909,1.909,0,0,1,.781-.142v-.142l.071-.426c.071-.639.461-1.845.6-2.484a1.206,1.206,0,0,0-.816.922C29.864,18.021,29.474,19.192,29.368,19.76ZM27.558,9.151l-4.4-2.98a.355.355,0,0,0-.568.284v1.6H11.7A1.348,1.348,0,0,0,10.351,9.4v7.557a.209.209,0,0,0,.319.177L12.8,15.715a.537.537,0,0,0,.248-.5V10.783h9.544v1.6a.355.355,0,0,0,.568.284l4.4-2.945A.332.332,0,0,0,27.558,9.151ZM26.529,20.4V12.841a.209.209,0,0,0-.319-.177l-2.129,1.419a.537.537,0,0,0-.248.5v4.435h-9.58v-1.6a.355.355,0,0,0-.568-.284l-4.4,2.945a.365.365,0,0,0,0,.6l4.4,2.945a.355.355,0,0,0,.568-.284v-1.6H25.181A1.326,1.326,0,0,0,26.529,20.4Z" transform="translate(9.915 3.9)" fill="#fff"/>
  </g>
</svg>
