<svg xmlns="http://www.w3.org/2000/svg" xmlns:xlink="http://www.w3.org/1999/xlink" width="67" height="58" viewBox="0 0 67 58">
  <defs>
    <clipPath id="clip-Goverance">
      <rect width="67" height="58"/>
    </clipPath>
  </defs>
  <g id="Goverance" clip-path="url(#clip-Goverance)">
    <g id="Group_755" data-name="Group 755" transform="translate(14 12)">
      <g id="Group_137" data-name="Group 137">
        <g id="Group_136" data-name="Group 136">
          <g id="Group_135" data-name="Group 135">
            <path id="Path_91" data-name="Path 91" d="M29.433,18a.307.307,0,0,0-.226.1l-7.988,8.038a.349.349,0,0,0,0,.477l7.687,7.762a.318.318,0,0,0,.226.1h0a.307.307,0,0,0,.226-.1l7.988-8.038a.349.349,0,0,0,0-.477L29.66,18.1a.451.451,0,0,0-.226-.1Z" transform="translate(-17.066 -13.978)" fill="#fff"/>
            <path id="Path_92" data-name="Path 92" d="M60.3,5.887l6.632,6.707,3.19-2.336a1.574,1.574,0,0,0,.653-1.181A1.644,1.644,0,0,0,70.3,7.8L65,2.47a1.682,1.682,0,0,0-1.256-.477,1.6,1.6,0,0,0-1.181.678Z" transform="translate(-46.4 -1.991)" fill="#fff"/>
            <path id="Path_93" data-name="Path 93" d="M8.868,57.4,5.653,59.736h0a1.684,1.684,0,0,0-.678,1.181A1.532,1.532,0,0,0,5.452,62.2l5.3,5.325A1.646,1.646,0,0,0,12.008,68a1.574,1.574,0,0,0,1.181-.653l2.336-3.24Z" transform="translate(-4.966 -43.481)" fill="#fff"/>
          </g>
          <path id="Path_94" data-name="Path 94" d="M73.6,71.2l8.968,12.409,3.441-3.517Z" transform="translate(-56.359 -53.815)" fill="#fff"/>
        </g>
        <path id="Path_95" data-name="Path 95" d="M9.2,121.208H19.323V119.6H9.2Z" transform="translate(-8.137 -90.056)" fill="#fff"/>
      </g>
    </g>
  </g>
</svg>
