<svg xmlns="http://www.w3.org/2000/svg" xmlns:xlink="http://www.w3.org/1999/xlink" width="67" height="59" viewBox="0 0 67 59">
  <defs>
    <clipPath id="clip-Information_Security">
      <rect width="67" height="59"/>
    </clipPath>
  </defs>
  <g id="Information_Security" data-name="Information Security" clip-path="url(#clip-Information_Security)">
    <path id="Path_581" data-name="Path 581" d="M31.787,25.044a5.943,5.943,0,0,0-2.163.84,38.069,38.069,0,0,0-3.972,2.389,1.133,1.133,0,0,1-.258.161,4.608,4.608,0,0,1-1.582.678,47.805,47.805,0,0,1-7.846.775h-.258a.416.416,0,0,1-.42-.355.4.4,0,0,1,.355-.452l6.91-.678a1.534,1.534,0,0,0,1.292-1.647A1.475,1.475,0,0,0,22.262,25.4l-6.135-.065a7.5,7.5,0,0,1-1.485-.226,9.437,9.437,0,0,0-7.394.452,1.439,1.439,0,0,0-1.324-.71l-2.648.194a1.616,1.616,0,0,0-1.485,1.711l.387,6.07A1.616,1.616,0,0,0,3.89,34.311l2.648-.194a1.464,1.464,0,0,0,1.227-.872l11.656.517a6.169,6.169,0,0,0,3.649-.646l.323-.194,8.815-5.328a1.484,1.484,0,0,0,.743-1.227A1.221,1.221,0,0,0,31.787,25.044ZM4.858,32.89a.9.9,0,1,1,.9-.9A.9.9,0,0,1,4.858,32.89ZM30.3,24.269a9.42,9.42,0,0,0-1,.452,43.042,43.042,0,0,0-3.778,2.228l-.291.194v-.517a3.43,3.43,0,0,0-.129-.613V25.98c.936-.517,2.745-1.421,3.745-1.84A1.387,1.387,0,0,1,30.3,24.269Zm-2.389-.743c-.71.323-2.1.84-2.745,1.195l-.452.258a.446.446,0,0,1-.129.1,3.073,3.073,0,0,0-.678-.613c.613-.323,1.97-.807,2.583-1.033A1.332,1.332,0,0,1,27.913,23.527ZM18.614,5.8a8.718,8.718,0,1,0,8.718,8.718A8.723,8.723,0,0,0,18.614,5.8Zm.355,3.358a1.437,1.437,0,0,1,0,2.874,1.437,1.437,0,0,1,0-2.874ZM21,18.748a.77.77,0,0,1-.194.355,2.6,2.6,0,0,1-1.873.84,5.385,5.385,0,0,1-1.033-.065,1.494,1.494,0,0,1-1.195-1.55c.065-.517.161-1.033.226-1.55.161-.9.323-1.776.452-2.68v-.161c0-.387-.129-.517-.484-.549a2.574,2.574,0,0,1-.484-.1.34.34,0,0,1-.258-.355.346.346,0,0,1,.323-.291,1.1,1.1,0,0,1,.323-.032h2.712a.493.493,0,0,1,.549.484,3.723,3.723,0,0,1-.1.84c-.194,1-.355,2.034-.549,3.035-.065.323-.129.678-.161,1a1.231,1.231,0,0,0,.032.484.357.357,0,0,0,.42.291,2.42,2.42,0,0,0,.517-.161,2.17,2.17,0,0,1,.387-.194C20.874,18.393,21.067,18.522,21,18.748Z" transform="translate(11.213 1.2)" fill="#fff"/>
  </g>
</svg>
