<svg xmlns="http://www.w3.org/2000/svg" width="79.607" height="51.964" viewBox="0 0 79.607 51.964">
  <g id="Group_745" data-name="Group 745" transform="translate(-15795.172 3520)">
    <circle id="Ellipse_110" data-name="Ellipse 110" cx="11.784" cy="11.784" r="11.784" transform="translate(15806.31 -3520)" fill="#1285ce"/>
    <path id="Path_467" data-name="Path 467" d="M56.817,68A11.817,11.817,0,1,0,68.633,79.817,11.817,11.817,0,0,0,56.817,68Zm0,18.658a1.244,1.244,0,1,1,1.244-1.244A1.244,1.244,0,0,1,56.817,86.658Zm1.244-6.219a1.244,1.244,0,0,1-2.488,0V74.219a1.244,1.244,0,0,1,2.488,0Z" transform="translate(15778.159 -3559.67)" fill="#f6b801"/>
    <path id="Path_468" data-name="Path 468" d="M106.642,56.15a14.418,14.418,0,0,1-2.7,2.394h1.141a11.6,11.6,0,0,1,11.333,11.831V82.9a1.765,1.765,0,0,1-1.758,1.767H109.78a1.244,1.244,0,1,0,0,2.488h4.879A4.255,4.255,0,0,0,118.9,82.9V70.376A14.164,14.164,0,0,0,106.642,56.15Z" transform="translate(15755.874 -3555.19)" fill="#1285ce"/>
    <ellipse id="Ellipse_111" data-name="Ellipse 111" cx="11.591" cy="11.784" rx="11.591" ry="11.784" transform="translate(15840.308 -3520)" fill="#1285ce"/>
    <path id="Path_469" data-name="Path 469" d="M25.09,84.049l-3.034-1.866a1.24,1.24,0,0,0-1.722,1.682h-7.09a1.244,1.244,0,0,0,0,2.488h7.09a1.239,1.239,0,0,0,.011,1.274,1.259,1.259,0,0,0,1.712.408l3.034-1.866a1.244,1.244,0,0,0,0-2.12Z" transform="translate(15790.634 -3564.962)" fill="#1285ce"/>
    <path id="Path_470" data-name="Path 470" d="M106.438,86.352a1.244,1.244,0,0,0,0-2.488h-7.09a1.24,1.24,0,0,0-1.722-1.682l-3.034,1.866a1.244,1.244,0,0,0,0,2.12l3.034,1.866a1.256,1.256,0,0,0,1.711-.408,1.239,1.239,0,0,0,.011-1.274Z" transform="translate(15759.633 -3564.962)" fill="#1285ce"/>
    <path id="Path_471" data-name="Path 471" d="M8.75,84.665h-4.5A1.765,1.765,0,0,1,2.488,82.9V70.376A11.6,11.6,0,0,1,13.82,58.544h1.14a14.417,14.417,0,0,1-2.7-2.394A14.164,14.164,0,0,0,0,70.376V82.9a4.255,4.255,0,0,0,4.246,4.255h4.5a1.244,1.244,0,1,0,0-2.488Z" transform="translate(15795.172 -3555.19)" fill="#1285ce"/>
    <path id="Path_472" data-name="Path 472" d="M49.944,58.545h1.141a10.843,10.843,0,0,1,3.184.484,16.643,16.643,0,0,1,2.018-1.915,13.358,13.358,0,0,0-3.646-.962,14.418,14.418,0,0,1-2.7,2.393Z" transform="translate(15776.29 -3555.19)" fill="#1285ce"/>
    <path id="Path_473" data-name="Path 473" d="M62.1,61.032c.219,0,.437.007.654.017a10.967,10.967,0,0,1,6.947-2.5h1.14a14.418,14.418,0,0,1-2.7-2.394,13.688,13.688,0,0,0-9.169,5.23A14.291,14.291,0,0,1,62.1,61.032Z" transform="translate(15772.875 -3555.19)" fill="#1285ce"/>
  </g>
</svg>
