<svg xmlns="http://www.w3.org/2000/svg" xmlns:xlink="http://www.w3.org/1999/xlink" width="69" height="58" viewBox="0 0 69 58">
  <defs>
    <clipPath id="clip-OPrisk">
      <rect width="69" height="58"/>
    </clipPath>
  </defs>
  <g id="OPrisk" clip-path="url(#clip-OPrisk)">
    <g id="Group_748" data-name="Group 748" transform="translate(-29.953 -135)">
      <path id="Path_72" data-name="Path 72" d="M40.417,38.69a.236.236,0,0,1-.031-.157,2.438,2.438,0,0,0,.22-.5c.032-.063.063-.094.126-.094l1.512-.157a.479.479,0,0,0,.441-.472V35.981a.479.479,0,0,0-.441-.472l-1.512-.157c-.063,0-.094-.031-.126-.094a3.5,3.5,0,0,0-.22-.5c-.031-.063-.031-.094.031-.157l.976-1.2a.479.479,0,0,0-.031-.63l-.945-.945a.448.448,0,0,0-.63-.032l-1.2.976a.236.236,0,0,1-.157.031,2.438,2.438,0,0,0-.5-.22c-.063-.032-.094-.063-.094-.126l-.157-1.512A.479.479,0,0,0,37.2,30.5H35.881a.479.479,0,0,0-.472.441l-.157,1.512c0,.063-.031.094-.094.126a3.5,3.5,0,0,0-.5.22c-.063.031-.094.031-.157-.031l-1.2-.976a.479.479,0,0,0-.63.032l-.945.945a.448.448,0,0,0-.031.63l.976,1.2a.236.236,0,0,1,.031.157,2.438,2.438,0,0,0-.22.5c-.032.063-.063.094-.126.094l-1.512.157a.479.479,0,0,0-.441.472V37.3a.479.479,0,0,0,.441.472l1.512.157c.063,0,.094.031.126.094a3.5,3.5,0,0,0,.22.5c.032.063.032.094-.031.157l-.976,1.2a.479.479,0,0,0,.031.63l.945.945a.448.448,0,0,0,.63.031l1.2-.976a.236.236,0,0,1,.157-.032,2.438,2.438,0,0,0,.5.22c.063.031.094.063.094.126l.157,1.512a.479.479,0,0,0,.472.441H37.2a.479.479,0,0,0,.472-.441l.157-1.512c0-.063.032-.094.094-.126a3.5,3.5,0,0,0,.5-.22c.063-.031.094-.031.157.032l1.2.976a.479.479,0,0,0,.63-.031l.945-.945a.448.448,0,0,0,.031-.63Zm-3.843.756a2.8,2.8,0,1,1,2.8-2.8A2.81,2.81,0,0,1,36.574,39.446Z" transform="translate(23.341 121.32)" fill="#fff"/>
      <ellipse id="Ellipse_61" data-name="Ellipse 61" cx="1.701" cy="1.701" rx="1.701" ry="1.701" transform="translate(58.214 156.261)" fill="#fff"/>
      <path id="Path_73" data-name="Path 73" d="M8.989,45.866a.661.661,0,1,0,0-1.323H6.752A2.2,2.2,0,0,0,4.673,43a2.173,2.173,0,1,0,0,4.347A2.2,2.2,0,0,0,6.752,45.8H8.989Z" transform="translate(42.453 112.757)" fill="#fff"/>
      <path id="Path_74" data-name="Path 74" d="M19.256,67.089l-1.575,1.575a2.184,2.184,0,1,0,.913.913L20.17,68a.646.646,0,0,0-.913-.913Z" transform="translate(34.233 96.385)" fill="#fff"/>
      <path id="Path_75" data-name="Path 75" d="M67.63,20.359a.694.694,0,0,0,.472-.189l1.575-1.575a2.184,2.184,0,1,0-.913-.913l-1.575,1.575a.646.646,0,0,0,0,.913A.572.572,0,0,0,67.63,20.359Z" transform="translate(-1.73 132.28)" fill="#fff"/>
      <path id="Path_76" data-name="Path 76" d="M44.678,6.752V8.989a.661.661,0,1,0,1.323,0V6.752a2.2,2.2,0,0,0,1.543-2.079,2.173,2.173,0,0,0-4.347,0A2.109,2.109,0,0,0,44.678,6.752Z" transform="translate(14.576 140.5)" fill="#fff"/>
      <path id="Path_77" data-name="Path 77" d="M16.642,18.747a2.172,2.172,0,0,0,1.008-.252l1.575,1.575a.657.657,0,0,0,.945-.913l-1.575-1.575a2.171,2.171,0,1,0-1.953,1.165Z" transform="translate(34.233 132.348)" fill="#fff"/>
      <path id="Path_78" data-name="Path 78" d="M45.866,77.7V75.461a.661.661,0,1,0-1.323,0V77.7A2.2,2.2,0,0,0,43,79.777a2.173,2.173,0,1,0,4.347,0A2.109,2.109,0,0,0,45.866,77.7Z" transform="translate(14.71 90.974)" fill="#fff"/>
      <path id="Path_79" data-name="Path 79" d="M70.685,68.512a2.172,2.172,0,0,0-1.008.252L68.1,67.189a.646.646,0,0,0-.913.913l1.575,1.575a2.171,2.171,0,1,0,1.921-1.165Z" transform="translate(-1.73 96.317)" fill="#fff"/>
      <path id="Path_80" data-name="Path 80" d="M79.777,43.1A2.2,2.2,0,0,0,77.7,44.643H75.461a.661.661,0,1,0,0,1.323H77.7a2.2,2.2,0,0,0,2.079,1.543,2.178,2.178,0,0,0,2.173-2.173A2.233,2.233,0,0,0,79.777,43.1Z" transform="translate(-7.073 112.688)" fill="#fff"/>
    </g>
  </g>
</svg>
