<svg xmlns="http://www.w3.org/2000/svg" width="92.066" height="47.843" viewBox="0 0 92.066 47.843">
  <g id="Group_744" data-name="Group 744" transform="translate(-14053.519 3397.054)">
    <path id="Path_474" data-name="Path 474" d="M35.411,41.681l.775-.775A28.7,28.7,0,0,1,56.83,33.927a29.251,29.251,0,0,1,9.6,2.52c2.617-2.035,5.718-4.265,9.3-6.978A36.875,36.875,0,0,0,56.83,25.4,35.132,35.132,0,0,0,32.6,36.932v.1Z" transform="translate(14050.073 -3422.391)" fill="#1285ce"/>
    <path id="Path_475" data-name="Path 475" d="M86.46,36.7c-2.908,3.877-5.428,7.172-7.56,9.983a25.3,25.3,0,0,1,3.586,10.758A1.468,1.468,0,0,0,83.94,58.7H95.473a1.514,1.514,0,0,0,1.454-1.745A39.627,39.627,0,0,0,86.46,36.7Z" transform="translate(14048.648 -3422.741)" fill="#1285ce"/>
    <path id="Path_476" data-name="Path 476" d="M83.958,31.256c.582-.775-.388-1.841-1.163-1.163C76.495,34.842,65.64,43.08,59.34,47.927a7.558,7.558,0,0,0-2.132-.291,9.207,9.207,0,1,0,9.207,9.207,8.072,8.072,0,0,0-.291-2.132C71.067,48.411,79.208,37.556,83.958,31.256Z" transform="translate(14049.6 -3422.531)" fill="#1285ce"/>
    <path id="Path_477" data-name="Path 477" d="M26.828,40.128a4.63,4.63,0,0,0-7.947,0L3.179,66.588a4.611,4.611,0,0,0,3.974,6.978h31.5a4.611,4.611,0,0,0,3.974-6.978ZM22.66,46.137a2.606,2.606,0,0,1,2.811,2.326v.485L24.6,58.834a1.715,1.715,0,0,1-1.841,1.551,1.665,1.665,0,0,1-1.551-1.551l-.872-9.886A2.479,2.479,0,0,1,22.66,46.137Zm.194,22a2.811,2.811,0,1,1,2.811-2.811A2.753,2.753,0,0,1,22.854,68.138Z" transform="translate(14051 -3422.777)" fill="#f6b801"/>
  </g>
</svg>
