<svg width="84" height="75" viewBox="0 0 84 75" fill="none" xmlns="http://www.w3.org/2000/svg">
<g clip-path="url(#clip0_3962_2172)">
<path d="M45.5 21.875H38.5V34.375H24.5V40.625H38.5V53.125H45.5V40.625H59.5V34.375H45.5V21.875ZM42 6.25C22.68 6.25 7 20.25 7 37.5C7 54.75 22.68 68.75 42 68.75C61.32 68.75 77 54.75 77 37.5C77 20.25 61.32 6.25 42 6.25ZM42 62.5C26.565 62.5 14 51.2812 14 37.5C14 23.7188 26.565 12.5 42 12.5C57.435 12.5 70 23.7188 70 37.5C70 51.2812 57.435 62.5 42 62.5Z" fill="#5E33BF"/>
</g>
<defs>
<clipPath id="clip0_3962_2172">
<rect width="84" height="75" fill="white"/>
</clipPath>
</defs>
</svg>
