<svg width="20" height="25" viewBox="0 0 20 25" fill="none" xmlns="http://www.w3.org/2000/svg">
<path d="M7.711 22.0342C7.711 23.2314 8.69 24.2 9.9 24.2C11.11 24.2 12.089 23.2314 12.089 22.0342H7.711ZM9.9 5.69772C12.936 5.69772 15.4 8.13568 15.4 11.1396V18.7582H4.4V11.1396C4.4 8.13568 6.864 5.69772 9.9 5.69772ZM9.9 0.800049C8.987 0.800049 8.25 1.52926 8.25 2.43261V3.706C4.796 4.4461 2.2 7.49354 2.2 11.1396V17.6698L0 19.8466V20.9349H19.8V19.8466L17.6 17.6698V11.1396C17.6 7.49354 15.004 4.4461 11.55 3.706V2.43261C11.55 1.52926 10.813 0.800049 9.9 0.800049Z" fill="#616161"/>
</svg>
