<svg width="35" height="35" viewBox="0 0 35 35" fill="none" xmlns="http://www.w3.org/2000/svg">
<path d="M17.4853 2.91669C9.43525 2.91669 2.9165 9.45002 2.9165 17.5C2.9165 25.55 9.43525 32.0834 17.4853 32.0834C25.5498 32.0834 32.0832 25.55 32.0832 17.5C32.0832 9.45002 25.5498 2.91669 17.4853 2.91669ZM27.5915 11.6667H23.2894C22.8228 9.84377 22.1519 8.09377 21.2769 6.47502C23.9603 7.39377 26.1915 9.26044 27.5915 11.6667ZM17.4998 5.89169C18.7103 7.64169 19.6582 9.58127 20.2853 11.6667H14.7144C15.3415 9.58127 16.2894 7.64169 17.4998 5.89169ZM6.21234 20.4167C5.979 19.4834 5.83317 18.5063 5.83317 17.5C5.83317 16.4938 5.979 15.5167 6.21234 14.5834H11.1415C11.0248 15.5459 10.9373 16.5084 10.9373 17.5C10.9373 18.4917 11.0248 19.4542 11.1415 20.4167H6.21234ZM7.40817 23.3334H11.7103C12.1769 25.1563 12.8478 26.9063 13.7228 28.525C11.0394 27.6063 8.80817 25.7542 7.40817 23.3334ZM11.7103 11.6667H7.40817C8.80817 9.24585 11.0394 7.39377 13.7228 6.47502C12.8478 8.09377 12.1769 9.84377 11.7103 11.6667ZM17.4998 29.1084C16.2894 27.3584 15.3415 25.4188 14.7144 23.3334H20.2853C19.6582 25.4188 18.7103 27.3584 17.4998 29.1084ZM20.9123 20.4167H14.0873C13.9561 19.4542 13.854 18.4917 13.854 17.5C13.854 16.5084 13.9561 15.5313 14.0873 14.5834H20.9123C21.0436 15.5313 21.1457 16.5084 21.1457 17.5C21.1457 18.4917 21.0436 19.4542 20.9123 20.4167ZM21.2769 28.525C22.1519 26.9063 22.8228 25.1563 23.2894 23.3334H27.5915C26.1915 25.7396 23.9603 27.6063 21.2769 28.525ZM23.8582 20.4167C23.9748 19.4542 24.0623 18.4917 24.0623 17.5C24.0623 16.5084 23.9748 15.5459 23.8582 14.5834H28.7873C29.0207 15.5167 29.1665 16.4938 29.1665 17.5C29.1665 18.5063 29.0207 19.4834 28.7873 20.4167H23.8582Z" fill="#9E9E9E"/>
</svg>
