<svg width="35" height="35" viewBox="0 0 35 35" fill="none" xmlns="http://www.w3.org/2000/svg">
<path d="M17.5002 17.5C15.896 17.5 14.5835 16.1875 14.5835 14.5833C14.5835 12.9792 15.896 11.6667 17.5002 11.6667C19.1043 11.6667 20.4168 12.9792 20.4168 14.5833C20.4168 16.1875 19.1043 17.5 17.5002 17.5ZM26.2502 14.875C26.2502 9.58124 22.3856 5.83332 17.5002 5.83332C12.6147 5.83332 8.75016 9.58124 8.75016 14.875C8.75016 18.2875 11.5939 22.8083 17.5002 28.2042C23.4064 22.8083 26.2502 18.2875 26.2502 14.875ZM17.5002 2.91666C23.6252 2.91666 29.1668 7.61249 29.1668 14.875C29.1668 19.7167 25.2731 25.4479 17.5002 32.0833C9.72725 25.4479 5.8335 19.7167 5.8335 14.875C5.8335 7.61249 11.3752 2.91666 17.5002 2.91666Z" fill="#9E9E9E"/>
</svg>
