<svg width="235" height="39" viewBox="0 0 235 39" fill="none" xmlns="http://www.w3.org/2000/svg">
<path d="M2.4 27.68V6.56C2.4 6.368 2.528 6.24 2.72 6.24H5.568C5.856 6.24 6.016 6.336 6.112 6.56L12.096 19.968H12.224L18.112 6.56C18.208 6.336 18.368 6.24 18.656 6.24H21.472C21.664 6.24 21.792 6.368 21.792 6.56V27.68C21.792 27.872 21.664 28 21.472 28H18.688C18.496 28 18.368 27.872 18.368 27.68V14.368H18.24L13.632 24.608C13.504 24.896 13.312 25.024 13.024 25.024H11.168C10.88 25.024 10.688 24.896 10.56 24.608L5.952 14.368H5.824V27.68C5.824 27.872 5.696 28 5.504 28H2.72C2.528 28 2.4 27.872 2.4 27.68ZM39.1315 28H35.9955C35.8035 28 35.6755 27.872 35.6755 27.68V19.104L29.3715 6.56C29.3075 6.4 29.4035 6.24 29.6275 6.24H32.8595C33.0515 6.24 33.2115 6.336 33.3075 6.56L37.5635 15.008H37.6595L41.9475 6.56C42.0435 6.336 42.1715 6.24 42.3955 6.24H45.4995C45.7555 6.24 45.8195 6.4 45.7555 6.56L39.4515 19.104V27.68C39.4515 27.872 39.3235 28 39.1315 28ZM64.9235 23.008C64.4755 21.664 64.3475 20.576 64.3475 17.12C64.3475 13.664 64.4755 12.576 64.9235 11.232C66.0435 7.68 68.7955 5.888 72.4755 5.888C75.9635 5.888 78.5875 7.68 79.8355 10.56C79.8995 10.72 79.8355 10.88 79.6755 10.944L76.9555 12.256C76.7635 12.352 76.6035 12.256 76.5395 12.096C75.8355 10.56 74.6195 9.28 72.4755 9.28C70.3955 9.28 69.1795 10.4 68.5715 12.16C68.2835 13.056 68.1875 13.92 68.1875 17.12C68.1875 20.32 68.2835 21.184 68.5715 22.08C69.1795 23.84 70.3955 24.96 72.4755 24.96C74.6195 24.96 75.8355 23.68 76.5395 22.144C76.6035 21.984 76.7635 21.888 76.9555 21.984L79.6755 23.296C79.8355 23.36 79.8995 23.52 79.8355 23.68C78.5875 26.56 75.9635 28.352 72.4755 28.352C68.7955 28.352 66.0435 26.56 64.9235 23.008ZM95.8097 28.352C92.0657 28.352 89.2497 26.56 88.1297 23.104C87.6817 21.76 87.5537 20.544 87.5537 17.12C87.5537 13.696 87.6817 12.48 88.1297 11.136C89.2497 7.68 92.0657 5.888 95.8097 5.888C99.5857 5.888 102.402 7.68 103.522 11.136C103.97 12.48 104.098 13.696 104.098 17.12C104.098 20.544 103.97 21.76 103.522 23.104C102.402 26.56 99.5857 28.352 95.8097 28.352ZM95.8097 24.96C97.9857 24.96 99.2657 23.872 99.8737 22.112C100.13 21.312 100.258 20.192 100.258 17.12C100.258 14.016 100.13 12.928 99.8737 12.128C99.2657 10.368 97.9857 9.28 95.8097 9.28C93.6657 9.28 92.3857 10.368 91.7777 12.128C91.5217 12.928 91.3937 14.016 91.3937 17.12C91.3937 20.192 91.5217 21.312 91.7777 22.112C92.3857 23.872 93.6657 24.96 95.8097 24.96ZM113.056 27.68V6.56C113.056 6.368 113.184 6.24 113.376 6.24H116.224C116.512 6.24 116.672 6.336 116.768 6.56L122.752 19.968H122.88L128.768 6.56C128.864 6.336 129.024 6.24 129.312 6.24H132.128C132.32 6.24 132.448 6.368 132.448 6.56V27.68C132.448 27.872 132.32 28 132.128 28H129.344C129.152 28 129.024 27.872 129.024 27.68V14.368H128.896L124.288 24.608C124.16 24.896 123.968 25.024 123.68 25.024H121.824C121.536 25.024 121.344 24.896 121.216 24.608L116.608 14.368H116.48V27.68C116.48 27.872 116.352 28 116.16 28H113.376C113.184 28 113.056 27.872 113.056 27.68ZM145.5 28H142.364C142.172 28 142.044 27.872 142.044 27.68V6.56C142.044 6.368 142.172 6.24 142.364 6.24H150.524C154.748 6.24 157.692 8.96 157.692 12.992C157.692 17.056 154.748 19.776 150.524 19.776H146.012C145.884 19.776 145.82 19.84 145.82 19.968V27.68C145.82 27.872 145.692 28 145.5 28ZM150.3 16.352C152.54 16.352 153.916 15.008 153.916 12.992C153.916 11.008 152.54 9.632 150.3 9.632H146.012C145.884 9.632 145.82 9.696 145.82 9.824V16.16C145.82 16.288 145.884 16.352 146.012 16.352H150.3ZM161.989 27.68L169.445 6.56C169.509 6.368 169.637 6.24 169.861 6.24H172.805C173.029 6.24 173.157 6.368 173.221 6.56L180.581 27.68C180.645 27.872 180.581 28 180.357 28H177.221C176.997 28 176.869 27.904 176.805 27.68L175.365 23.456H167.173L165.733 27.68C165.669 27.904 165.541 28 165.317 28H162.213C161.989 28 161.925 27.872 161.989 27.68ZM168.325 20.096H174.213L171.333 11.648H171.237L168.325 20.096ZM188.362 27.68V6.56C188.362 6.368 188.49 6.24 188.682 6.24H191.626C191.882 6.24 192.042 6.336 192.17 6.56L201.034 21.568H201.162V6.56C201.162 6.368 201.29 6.24 201.482 6.24H204.266C204.458 6.24 204.586 6.368 204.586 6.56V27.68C204.586 27.872 204.458 28 204.266 28H201.354C201.098 28 200.938 27.904 200.81 27.68L191.914 12.704H191.786V27.68C191.786 27.872 191.658 28 191.466 28H188.682C188.49 28 188.362 27.872 188.362 27.68ZM221.938 28H218.802C218.61 28 218.482 27.872 218.482 27.68V19.104L212.178 6.56C212.114 6.4 212.21 6.24 212.434 6.24H215.666C215.858 6.24 216.018 6.336 216.114 6.56L220.37 15.008H220.466L224.754 6.56C224.85 6.336 224.978 6.24 225.202 6.24H228.306C228.562 6.24 228.626 6.4 228.562 6.56L222.258 19.104V27.68C222.258 27.872 222.13 28 221.938 28Z" fill="white"/>
</svg>
