<svg width="35" height="35" viewBox="0 0 35 35" fill="none" xmlns="http://www.w3.org/2000/svg">
<path d="M17.5 31.7188C19.1042 31.7188 20.4167 30.4062 20.4167 28.8021H14.5834C14.5834 30.4062 15.8959 31.7188 17.5 31.7188ZM26.25 22.9688V15.6771C26.25 11.2 23.8729 7.45208 19.6875 6.46042V5.46875C19.6875 4.25833 18.7104 3.28125 17.5 3.28125C16.2896 3.28125 15.3125 4.25833 15.3125 5.46875V6.46042C11.1417 7.45208 8.75003 11.1854 8.75003 15.6771V22.9688L5.83337 25.8854V27.3438H29.1667V25.8854L26.25 22.9688ZM23.3334 24.4271H11.6667V15.6771C11.6667 12.0604 13.8688 9.11458 17.5 9.11458C21.1313 9.11458 23.3334 12.0604 23.3334 15.6771V24.4271ZM11.0542 5.58542L8.96878 3.5C5.46878 6.16875 3.16462 10.2812 2.96045 14.9479H5.87712C6.09587 11.0833 8.0792 7.7 11.0542 5.58542ZM29.1229 14.9479H32.0396C31.8209 10.2812 29.5167 6.16875 26.0313 3.5L23.9604 5.58542C26.9063 7.7 28.9042 11.0833 29.1229 14.9479Z" fill="#9E9E9E"/>
</svg>
