<svg width="35" height="35" viewBox="0 0 35 35" fill="none" xmlns="http://www.w3.org/2000/svg">
<path d="M14.5832 16.0417C17.8061 16.0417 20.4165 13.4313 20.4165 10.2083C20.4165 6.98542 17.8061 4.375 14.5832 4.375C11.3603 4.375 8.74984 6.98542 8.74984 10.2083C8.74984 13.4313 11.3603 16.0417 14.5832 16.0417ZM14.5832 7.29167C16.1873 7.29167 17.4998 8.60417 17.4998 10.2083C17.4998 11.8125 16.1873 13.125 14.5832 13.125C12.979 13.125 11.6665 11.8125 11.6665 10.2083C11.6665 8.60417 12.979 7.29167 14.5832 7.29167Z" fill="#9E9E9E"/>
<path d="M5.83317 24.7917C6.154 23.7417 10.6603 21.875 14.5832 21.875C14.5832 20.8542 14.7728 19.8771 15.0936 18.9729C11.1123 18.8271 2.9165 20.8104 2.9165 24.7917V27.7083H16.829C16.0707 26.8625 15.4728 25.8854 15.0936 24.7917H5.83317Z" fill="#9E9E9E"/>
<path d="M28.3353 24.8208C28.8603 23.9604 29.1665 22.9542 29.1665 21.875C29.1665 18.6521 26.5561 16.0417 23.3332 16.0417C20.1103 16.0417 17.4998 18.6521 17.4998 21.875C17.4998 25.0979 20.1103 27.7083 23.3332 27.7083C24.4123 27.7083 25.4186 27.3875 26.279 26.8771C27.6353 28.2333 28.6415 29.2396 30.0269 30.625L32.0832 28.5688C29.8957 26.3813 30.9311 27.4021 28.3353 24.8208ZM23.3332 24.7917C21.729 24.7917 20.4165 23.4792 20.4165 21.875C20.4165 20.2708 21.729 18.9583 23.3332 18.9583C24.9373 18.9583 26.2498 20.2708 26.2498 21.875C26.2498 23.4792 24.9373 24.7917 23.3332 24.7917Z" fill="#9E9E9E"/>
</svg>
