<svg width="29" height="29" viewBox="0 0 29 29" fill="none" xmlns="http://www.w3.org/2000/svg">
<path d="M23.3187 15.676C23.3667 15.292 23.4027 14.908 23.4027 14.5C23.4027 14.092 23.3667 13.708 23.3187 13.324L25.8507 11.344C26.0787 11.164 26.1387 10.84 25.9947 10.576L23.5947 6.42398C23.4867 6.23198 23.2827 6.12398 23.0667 6.12398C22.9947 6.12398 22.9227 6.13598 22.8627 6.15998L19.8747 7.35998C19.2507 6.87998 18.5787 6.48398 17.8467 6.18398L17.3907 3.00398C17.3547 2.71598 17.1027 2.49998 16.8027 2.49998H12.0027C11.7027 2.49998 11.4507 2.71598 11.4147 3.00398L10.9587 6.18398C10.2267 6.48398 9.55474 6.89198 8.93074 7.35998L5.94274 6.15998C5.87074 6.13598 5.79874 6.12398 5.72674 6.12398C5.52274 6.12398 5.31874 6.23198 5.21074 6.42398L2.81074 10.576C2.65474 10.84 2.72674 11.164 2.95474 11.344L5.48674 13.324C5.43874 13.708 5.40274 14.104 5.40274 14.5C5.40274 14.896 5.43874 15.292 5.48674 15.676L2.95474 17.656C2.72674 17.836 2.66674 18.16 2.81074 18.424L5.21074 22.576C5.31874 22.768 5.52274 22.876 5.73874 22.876C5.81074 22.876 5.88274 22.864 5.94274 22.84L8.93074 21.64C9.55474 22.12 10.2267 22.516 10.9587 22.816L11.4147 25.996C11.4507 26.284 11.7027 26.5 12.0027 26.5H16.8027C17.1027 26.5 17.3547 26.284 17.3907 25.996L17.8467 22.816C18.5787 22.516 19.2507 22.108 19.8747 21.64L22.8627 22.84C22.9347 22.864 23.0067 22.876 23.0787 22.876C23.2827 22.876 23.4867 22.768 23.5947 22.576L25.9947 18.424C26.1387 18.16 26.0787 17.836 25.8507 17.656L23.3187 15.676ZM20.9427 13.624C20.9907 13.996 21.0027 14.248 21.0027 14.5C21.0027 14.752 20.9787 15.016 20.9427 15.376L20.7747 16.732L21.8427 17.572L23.1387 18.58L22.2987 20.032L20.7747 19.42L19.5267 18.916L18.4467 19.732C17.9307 20.116 17.4387 20.404 16.9467 20.608L15.6747 21.124L15.4827 22.48L15.2427 24.1H13.5627L13.1427 21.124L11.8707 20.608C11.3547 20.392 10.8747 20.116 10.3947 19.756L9.30274 18.916L8.03074 19.432L6.50674 20.044L5.66674 18.592L6.96274 17.584L8.03074 16.744L7.86274 15.388C7.82674 15.016 7.80274 14.74 7.80274 14.5C7.80274 14.26 7.82674 13.984 7.86274 13.624L8.03074 12.268L6.96274 11.428L5.66674 10.42L6.50674 8.96798L8.03074 9.57998L9.27874 10.084L10.3587 9.26798C10.8747 8.88398 11.3667 8.59598 11.8587 8.39198L13.1307 7.87598L13.3227 6.51998L13.5627 4.89998H15.2307L15.6507 7.87598L16.9227 8.39198C17.4387 8.60798 17.9187 8.88398 18.3987 9.24398L19.4907 10.084L20.7627 9.56798L22.2867 8.95598L23.1267 10.408L21.8427 11.428L20.7747 12.268L20.9427 13.624ZM14.4027 9.69998C11.7507 9.69998 9.60274 11.848 9.60274 14.5C9.60274 17.152 11.7507 19.3 14.4027 19.3C17.0547 19.3 19.2027 17.152 19.2027 14.5C19.2027 11.848 17.0547 9.69998 14.4027 9.69998ZM14.4027 16.9C13.0827 16.9 12.0027 15.82 12.0027 14.5C12.0027 13.18 13.0827 12.1 14.4027 12.1C15.7227 12.1 16.8027 13.18 16.8027 14.5C16.8027 15.82 15.7227 16.9 14.4027 16.9Z" fill="#616161"/>
</svg>
