<svg width="28" height="28" viewBox="0 0 28 28" fill="none" xmlns="http://www.w3.org/2000/svg">
<path d="M21 18.8067C20.1133 18.8067 19.32 19.1567 18.7133 19.705L10.395 14.8633C10.4533 14.595 10.5 14.3267 10.5 14.0467C10.5 13.7667 10.4533 13.4983 10.395 13.23L18.62 8.43501C19.25 9.01834 20.0783 9.38001 21 9.38001C22.9367 9.38001 24.5 7.81667 24.5 5.88001C24.5 3.94334 22.9367 2.38 21 2.38C19.0633 2.38 17.5 3.94334 17.5 5.88001C17.5 6.16001 17.5467 6.42834 17.605 6.69667L9.38 11.4917C8.75 10.9083 7.92167 10.5467 7 10.5467C5.06333 10.5467 3.5 12.11 3.5 14.0467C3.5 15.9833 5.06333 17.5467 7 17.5467C7.92167 17.5467 8.75 17.185 9.38 16.6017L17.6867 21.455C17.6283 21.7 17.5933 21.9567 17.5933 22.2133C17.5933 24.0917 19.1217 25.62 21 25.62C22.8783 25.62 24.4067 24.0917 24.4067 22.2133C24.4067 20.335 22.8783 18.8067 21 18.8067ZM21 4.71334C21.6417 4.71334 22.1667 5.23834 22.1667 5.88001C22.1667 6.52167 21.6417 7.04667 21 7.04667C20.3583 7.04667 19.8333 6.52167 19.8333 5.88001C19.8333 5.23834 20.3583 4.71334 21 4.71334ZM7 15.2133C6.35833 15.2133 5.83333 14.6883 5.83333 14.0467C5.83333 13.405 6.35833 12.88 7 12.88C7.64167 12.88 8.16667 13.405 8.16667 14.0467C8.16667 14.6883 7.64167 15.2133 7 15.2133ZM21 23.4033C20.3583 23.4033 19.8333 22.8783 19.8333 22.2367C19.8333 21.595 20.3583 21.07 21 21.07C21.6417 21.07 22.1667 21.595 22.1667 22.2367C22.1667 22.8783 21.6417 23.4033 21 23.4033Z" fill="#757575"/>
</svg>
