<svg width="35" height="35" viewBox="0 0 35 35" fill="none" xmlns="http://www.w3.org/2000/svg">
<path d="M21.875 2.1875H13.125V5.10417H21.875V2.1875ZM16.0417 21.1458H18.9583V12.3958H16.0417V21.1458ZM27.7521 11.5063L29.8229 9.43542C29.1958 8.69167 28.5104 7.99167 27.7667 7.37917L25.6958 9.45C23.4354 7.64167 20.5917 6.5625 17.5 6.5625C10.2521 6.5625 4.375 12.4396 4.375 19.6875C4.375 26.9354 10.2375 32.8125 17.5 32.8125C24.7625 32.8125 30.625 26.9354 30.625 19.6875C30.625 16.5958 29.5458 13.7521 27.7521 11.5063ZM17.5 29.8958C11.8563 29.8958 7.29167 25.3313 7.29167 19.6875C7.29167 14.0438 11.8563 9.47917 17.5 9.47917C23.1438 9.47917 27.7083 14.0438 27.7083 19.6875C27.7083 25.3313 23.1438 29.8958 17.5 29.8958Z" fill="#9E9E9E"/>
</svg>
